<svg width="32" height="32" viewBox="0 0 32 32" fill="none" xmlns="http://www.w3.org/2000/svg">
<path d="M25.541 8.00002H18.3844C17.5476 8.00002 16.8056 7.46206 16.5454 6.66669V6.66669C16.2627 5.88433 15.7382 5.20737 15.0447 4.72958C14.3511 4.25179 13.5229 3.99683 12.6746 4.00003H6.45949C5.37505 4.00003 4.33503 4.42146 3.56821 5.1716C2.8014 5.92175 2.37061 6.93916 2.37061 8.00002V25.3333C2.37061 26.3942 2.8014 27.4116 3.56821 28.1618C4.33503 28.9119 5.37505 29.3333 6.45949 29.3333H25.541C26.6254 29.3333 27.6654 28.9119 28.4323 28.1618C29.1991 27.4116 29.6299 26.3942 29.6299 25.3333V12C29.6299 10.9392 29.1991 9.92174 28.4323 9.1716C27.6654 8.42145 26.6254 8.00002 25.541 8.00002Z" fill="#AC162C"/>
</svg>
