<svg width="212" height="212" viewBox="0 0 212 212" fill="none" xmlns="http://www.w3.org/2000/svg">
<rect width="212" height="212" rx="15" fill="#FAFAFA"/>
<g clip-path="url(#clip0_1018_1514)">
<path d="M118.5 44H99.9375C98.0737 44 96.5625 45.5112 96.5625 47.375H115.125V60.875H128.625V87.875H116.812V91.25H128.625C130.489 91.25 132 89.7388 132 87.875V57.5008L118.5 44ZM118.5 57.5V48.7723L127.226 57.5H118.5ZM81.375 50.75C79.5112 50.75 78 52.2612 78 54.125V94.625C78 96.4888 79.5112 98 81.375 98H110.062C111.926 98 113.438 96.4888 113.438 94.625V64.2508L99.9375 50.75H81.375ZM110.062 94.625H81.375V54.125H96.5625V67.625H110.062V94.625ZM99.9375 64.25V55.5223L108.664 64.25H99.9375Z" fill="#909090"/>
</g>
<path d="M28.2598 149V145.248L28.5818 146.116L24.3678 139.2H25.8658L29.4078 145.038H28.5958L32.1518 139.2H33.5378L29.3378 146.116L29.6458 145.248V149H28.2598ZM37.1063 149.084C36.3596 149.084 35.697 148.921 35.1183 148.594C34.5396 148.267 34.0823 147.819 33.7463 147.25C33.4103 146.671 33.2423 146.018 33.2423 145.29C33.2423 144.553 33.4103 143.899 33.7463 143.33C34.0823 142.761 34.5396 142.317 35.1183 142C35.697 141.673 36.3596 141.51 37.1063 141.51C37.8436 141.51 38.5016 141.673 39.0803 142C39.6683 142.317 40.1256 142.761 40.4523 143.33C40.7883 143.89 40.9563 144.543 40.9563 145.29C40.9563 146.027 40.7883 146.681 40.4523 147.25C40.1256 147.819 39.6683 148.267 39.0803 148.594C38.5016 148.921 37.8436 149.084 37.1063 149.084ZM37.1063 147.908C37.5823 147.908 38.007 147.801 38.3803 147.586C38.763 147.371 39.0616 147.068 39.2763 146.676C39.491 146.275 39.5983 145.813 39.5983 145.29C39.5983 144.758 39.491 144.301 39.2763 143.918C39.0616 143.526 38.763 143.223 38.3803 143.008C38.007 142.793 37.5823 142.686 37.1063 142.686C36.6303 142.686 36.2056 142.793 35.8323 143.008C35.459 143.223 35.1603 143.526 34.9363 143.918C34.7123 144.301 34.6003 144.758 34.6003 145.29C34.6003 145.813 34.7123 146.275 34.9363 146.676C35.1603 147.068 35.459 147.371 35.8323 147.586C36.2056 147.801 36.6303 147.908 37.1063 147.908ZM45.937 149.084C45.3023 149.084 44.7423 148.967 44.257 148.734C43.781 148.501 43.4077 148.146 43.137 147.67C42.8757 147.185 42.745 146.578 42.745 145.85V141.58H44.089V145.696C44.089 146.424 44.2617 146.97 44.607 147.334C44.9617 147.698 45.4563 147.88 46.091 147.88C46.5577 147.88 46.9637 147.787 47.309 147.6C47.6543 147.404 47.9203 147.124 48.107 146.76C48.2937 146.387 48.387 145.939 48.387 145.416V141.58H49.731V149H48.457V146.998L48.667 147.53C48.4243 148.025 48.0603 148.407 47.575 148.678C47.0897 148.949 46.5437 149.084 45.937 149.084ZM60.0114 141.51C60.6181 141.51 61.1501 141.627 61.6074 141.86C62.0741 142.093 62.4381 142.448 62.6994 142.924C62.9607 143.4 63.0914 144.002 63.0914 144.73V149H61.7474V144.884C61.7474 144.165 61.5701 143.624 61.2154 143.26C60.8701 142.896 60.3801 142.714 59.7454 142.714C59.2694 142.714 58.8541 142.807 58.4994 142.994C58.1447 143.181 57.8694 143.456 57.6734 143.82C57.4867 144.184 57.3934 144.637 57.3934 145.178V149H56.0494V138.612H57.3934V143.582L57.1274 143.05C57.3701 142.565 57.7434 142.187 58.2474 141.916C58.7514 141.645 59.3394 141.51 60.0114 141.51ZM70.1847 149V147.432L70.1147 147.138V144.464C70.1147 143.895 69.9467 143.456 69.6107 143.148C69.284 142.831 68.7894 142.672 68.1267 142.672C67.688 142.672 67.2587 142.747 66.8387 142.896C66.4187 143.036 66.064 143.227 65.7747 143.47L65.2147 142.462C65.5974 142.154 66.0547 141.921 66.5867 141.762C67.128 141.594 67.6927 141.51 68.2807 141.51C69.298 141.51 70.082 141.757 70.6327 142.252C71.1834 142.747 71.4587 143.503 71.4587 144.52V149H70.1847ZM67.7487 149.084C67.198 149.084 66.7127 148.991 66.2927 148.804C65.882 148.617 65.5647 148.361 65.3407 148.034C65.1167 147.698 65.0047 147.32 65.0047 146.9C65.0047 146.499 65.098 146.135 65.2847 145.808C65.4807 145.481 65.7934 145.22 66.2227 145.024C66.6614 144.828 67.2494 144.73 67.9867 144.73H70.3387V145.696H68.0427C67.3707 145.696 66.918 145.808 66.6847 146.032C66.4514 146.256 66.3347 146.527 66.3347 146.844C66.3347 147.208 66.4794 147.502 66.7687 147.726C67.058 147.941 67.4594 148.048 67.9727 148.048C68.4767 148.048 68.9154 147.936 69.2887 147.712C69.6714 147.488 69.9467 147.161 70.1147 146.732L70.3807 147.656C70.2034 148.095 69.8907 148.445 69.4427 148.706C68.9947 148.958 68.43 149.084 67.7487 149.084ZM75.7552 149L72.5072 141.58H73.9072L76.7912 148.3H76.1192L79.0592 141.58H80.3752L77.1272 149H75.7552ZM84.7284 149.084C83.9351 149.084 83.2351 148.921 82.6284 148.594C82.0311 148.267 81.5644 147.819 81.2284 147.25C80.9017 146.681 80.7384 146.027 80.7384 145.29C80.7384 144.553 80.8971 143.899 81.2144 143.33C81.5411 142.761 81.9844 142.317 82.5444 142C83.1137 141.673 83.7531 141.51 84.4624 141.51C85.1811 141.51 85.8157 141.669 86.3664 141.986C86.9171 142.303 87.3464 142.751 87.6544 143.33C87.9717 143.899 88.1304 144.567 88.1304 145.332C88.1304 145.388 88.1257 145.453 88.1164 145.528C88.1164 145.603 88.1117 145.673 88.1024 145.738H81.7884V144.772H87.4024L86.8564 145.108C86.8657 144.632 86.7677 144.207 86.5624 143.834C86.3571 143.461 86.0724 143.171 85.7084 142.966C85.3537 142.751 84.9384 142.644 84.4624 142.644C83.9957 142.644 83.5804 142.751 83.2164 142.966C82.8524 143.171 82.5677 143.465 82.3624 143.848C82.1571 144.221 82.0544 144.651 82.0544 145.136V145.36C82.0544 145.855 82.1664 146.298 82.3904 146.69C82.6237 147.073 82.9457 147.371 83.3564 147.586C83.7671 147.801 84.2384 147.908 84.7704 147.908C85.2091 147.908 85.6057 147.833 85.9604 147.684C86.3244 147.535 86.6417 147.311 86.9124 147.012L87.6544 147.88C87.3184 148.272 86.8984 148.571 86.3944 148.776C85.8997 148.981 85.3444 149.084 84.7284 149.084ZM97.7184 141.51C98.3251 141.51 98.8571 141.627 99.3144 141.86C99.7811 142.093 100.145 142.448 100.406 142.924C100.668 143.4 100.798 144.002 100.798 144.73V149H99.4544V144.884C99.4544 144.165 99.2771 143.624 98.9224 143.26C98.5771 142.896 98.0871 142.714 97.4524 142.714C96.9764 142.714 96.5611 142.807 96.2064 142.994C95.8518 143.181 95.5764 143.456 95.3804 143.82C95.1938 144.184 95.1004 144.637 95.1004 145.178V149H93.7564V141.58H95.0444V143.582L94.8344 143.05C95.0771 142.565 95.4504 142.187 95.9544 141.916C96.4584 141.645 97.0464 141.51 97.7184 141.51ZM106.464 149.084C105.717 149.084 105.054 148.921 104.476 148.594C103.897 148.267 103.44 147.819 103.104 147.25C102.768 146.671 102.6 146.018 102.6 145.29C102.6 144.553 102.768 143.899 103.104 143.33C103.44 142.761 103.897 142.317 104.476 142C105.054 141.673 105.717 141.51 106.464 141.51C107.201 141.51 107.859 141.673 108.438 142C109.026 142.317 109.483 142.761 109.81 143.33C110.146 143.89 110.314 144.543 110.314 145.29C110.314 146.027 110.146 146.681 109.81 147.25C109.483 147.819 109.026 148.267 108.438 148.594C107.859 148.921 107.201 149.084 106.464 149.084ZM106.464 147.908C106.94 147.908 107.364 147.801 107.738 147.586C108.12 147.371 108.419 147.068 108.634 146.676C108.848 146.275 108.956 145.813 108.956 145.29C108.956 144.758 108.848 144.301 108.634 143.918C108.419 143.526 108.12 143.223 107.738 143.008C107.364 142.793 106.94 142.686 106.464 142.686C105.988 142.686 105.563 142.793 105.19 143.008C104.816 143.223 104.518 143.526 104.294 143.918C104.07 144.301 103.958 144.758 103.958 145.29C103.958 145.813 104.07 146.275 104.294 146.676C104.518 147.068 104.816 147.371 105.19 147.586C105.563 147.801 105.988 147.908 106.464 147.908ZM114.72 149.084C113.974 149.084 113.395 148.883 112.984 148.482C112.574 148.081 112.368 147.507 112.368 146.76V139.956H113.712V146.704C113.712 147.105 113.81 147.413 114.006 147.628C114.212 147.843 114.501 147.95 114.874 147.95C115.294 147.95 115.644 147.833 115.924 147.6L116.344 148.566C116.139 148.743 115.892 148.874 115.602 148.958C115.322 149.042 115.028 149.084 114.72 149.084ZM111.108 142.686V141.58H115.84V142.686H111.108ZM121.925 149V140.922C121.925 140.194 122.135 139.615 122.555 139.186C122.984 138.747 123.591 138.528 124.375 138.528C124.664 138.528 124.94 138.565 125.201 138.64C125.472 138.705 125.7 138.813 125.887 138.962L125.481 139.984C125.341 139.872 125.182 139.788 125.005 139.732C124.828 139.667 124.641 139.634 124.445 139.634C124.053 139.634 123.754 139.746 123.549 139.97C123.344 140.185 123.241 140.507 123.241 140.936V141.93L123.269 142.546V149H121.925ZM120.665 142.686V141.58H125.397V142.686H120.665ZM126.671 149V141.58H128.015V149H126.671ZM127.343 140.152C127.082 140.152 126.862 140.068 126.685 139.9C126.517 139.732 126.433 139.527 126.433 139.284C126.433 139.032 126.517 138.822 126.685 138.654C126.862 138.486 127.082 138.402 127.343 138.402C127.604 138.402 127.819 138.486 127.987 138.654C128.164 138.813 128.253 139.013 128.253 139.256C128.253 139.508 128.169 139.723 128.001 139.9C127.833 140.068 127.614 140.152 127.343 140.152ZM130.575 149V138.612H131.919V149H130.575ZM134.485 149V138.612H135.829V149H134.485ZM141.699 149.084C140.906 149.084 140.206 148.921 139.599 148.594C139.002 148.267 138.535 147.819 138.199 147.25C137.872 146.681 137.709 146.027 137.709 145.29C137.709 144.553 137.868 143.899 138.185 143.33C138.512 142.761 138.955 142.317 139.515 142C140.084 141.673 140.724 141.51 141.433 141.51C142.152 141.51 142.786 141.669 143.337 141.986C143.888 142.303 144.317 142.751 144.625 143.33C144.942 143.899 145.101 144.567 145.101 145.332C145.101 145.388 145.096 145.453 145.087 145.528C145.087 145.603 145.082 145.673 145.073 145.738H138.759V144.772H144.373L143.827 145.108C143.836 144.632 143.738 144.207 143.533 143.834C143.328 143.461 143.043 143.171 142.679 142.966C142.324 142.751 141.909 142.644 141.433 142.644C140.966 142.644 140.551 142.751 140.187 142.966C139.823 143.171 139.538 143.465 139.333 143.848C139.128 144.221 139.025 144.651 139.025 145.136V145.36C139.025 145.855 139.137 146.298 139.361 146.69C139.594 147.073 139.916 147.371 140.327 147.586C140.738 147.801 141.209 147.908 141.741 147.908C142.18 147.908 142.576 147.833 142.931 147.684C143.295 147.535 143.612 147.311 143.883 147.012L144.625 147.88C144.289 148.272 143.869 148.571 143.365 148.776C142.87 148.981 142.315 149.084 141.699 149.084ZM150.033 149.084C149.315 149.084 148.671 148.925 148.101 148.608C147.541 148.291 147.098 147.847 146.771 147.278C146.445 146.709 146.281 146.046 146.281 145.29C146.281 144.534 146.445 143.876 146.771 143.316C147.098 142.747 147.541 142.303 148.101 141.986C148.671 141.669 149.315 141.51 150.033 141.51C150.659 141.51 151.223 141.65 151.727 141.93C152.231 142.21 152.633 142.63 152.931 143.19C153.239 143.75 153.393 144.45 153.393 145.29C153.393 146.13 153.244 146.83 152.945 147.39C152.656 147.95 152.259 148.375 151.755 148.664C151.251 148.944 150.677 149.084 150.033 149.084ZM150.145 147.908C150.612 147.908 151.032 147.801 151.405 147.586C151.788 147.371 152.087 147.068 152.301 146.676C152.525 146.275 152.637 145.813 152.637 145.29C152.637 144.758 152.525 144.301 152.301 143.918C152.087 143.526 151.788 143.223 151.405 143.008C151.032 142.793 150.612 142.686 150.145 142.686C149.669 142.686 149.245 142.793 148.871 143.008C148.498 143.223 148.199 143.526 147.975 143.918C147.751 144.301 147.639 144.758 147.639 145.29C147.639 145.813 147.751 146.275 147.975 146.676C148.199 147.068 148.498 147.371 148.871 147.586C149.245 147.801 149.669 147.908 150.145 147.908ZM152.679 149V146.998L152.763 145.276L152.623 143.554V138.612H153.967V149H152.679ZM164.876 149V147.432L164.806 147.138V144.464C164.806 143.895 164.638 143.456 164.302 143.148C163.975 142.831 163.481 142.672 162.818 142.672C162.379 142.672 161.95 142.747 161.53 142.896C161.11 143.036 160.755 143.227 160.466 143.47L159.906 142.462C160.289 142.154 160.746 141.921 161.278 141.762C161.819 141.594 162.384 141.51 162.972 141.51C163.989 141.51 164.773 141.757 165.324 142.252C165.875 142.747 166.15 143.503 166.15 144.52V149H164.876ZM162.44 149.084C161.889 149.084 161.404 148.991 160.984 148.804C160.573 148.617 160.256 148.361 160.032 148.034C159.808 147.698 159.696 147.32 159.696 146.9C159.696 146.499 159.789 146.135 159.976 145.808C160.172 145.481 160.485 145.22 160.914 145.024C161.353 144.828 161.941 144.73 162.678 144.73H165.03V145.696H162.734C162.062 145.696 161.609 145.808 161.376 146.032C161.143 146.256 161.026 146.527 161.026 146.844C161.026 147.208 161.171 147.502 161.46 147.726C161.749 147.941 162.151 148.048 162.664 148.048C163.168 148.048 163.607 147.936 163.98 147.712C164.363 147.488 164.638 147.161 164.806 146.732L165.072 147.656C164.895 148.095 164.582 148.445 164.134 148.706C163.686 148.958 163.121 149.084 162.44 149.084ZM172.599 141.51C173.206 141.51 173.738 141.627 174.195 141.86C174.662 142.093 175.026 142.448 175.287 142.924C175.549 143.4 175.679 144.002 175.679 144.73V149H174.335V144.884C174.335 144.165 174.158 143.624 173.803 143.26C173.458 142.896 172.968 142.714 172.333 142.714C171.857 142.714 171.442 142.807 171.087 142.994C170.733 143.181 170.457 143.456 170.261 143.82C170.075 144.184 169.981 144.637 169.981 145.178V149H168.637V141.58H169.925V143.582L169.715 143.05C169.958 142.565 170.331 142.187 170.835 141.916C171.339 141.645 171.927 141.51 172.599 141.51ZM178.352 151.8C177.997 151.8 177.652 151.739 177.316 151.618C176.98 151.506 176.691 151.338 176.448 151.114L177.022 150.106C177.209 150.283 177.414 150.419 177.638 150.512C177.862 150.605 178.1 150.652 178.352 150.652C178.679 150.652 178.949 150.568 179.164 150.4C179.379 150.232 179.579 149.933 179.766 149.504L180.228 148.482L180.368 148.314L183.28 141.58H184.596L180.998 149.742C180.783 150.265 180.541 150.675 180.27 150.974C180.009 151.273 179.719 151.483 179.402 151.604C179.085 151.735 178.735 151.8 178.352 151.8ZM180.116 149.238L176.728 141.58H178.128L181.012 148.188L180.116 149.238ZM57.4622 166V157.922C57.4622 157.194 57.6722 156.615 58.0922 156.186C58.5215 155.747 59.1282 155.528 59.9122 155.528C60.2015 155.528 60.4769 155.565 60.7382 155.64C61.0089 155.705 61.2375 155.813 61.4242 155.962L61.0182 156.984C60.8782 156.872 60.7195 156.788 60.5422 156.732C60.3649 156.667 60.1782 156.634 59.9822 156.634C59.5902 156.634 59.2915 156.746 59.0862 156.97C58.8809 157.185 58.7782 157.507 58.7782 157.936V158.93L58.8062 159.546V166H57.4622ZM56.2022 159.686V158.58H60.9342V159.686H56.2022ZM65.2704 166.084C64.5237 166.084 63.861 165.921 63.2824 165.594C62.7037 165.267 62.2464 164.819 61.9104 164.25C61.5744 163.671 61.4064 163.018 61.4064 162.29C61.4064 161.553 61.5744 160.899 61.9104 160.33C62.2464 159.761 62.7037 159.317 63.2824 159C63.861 158.673 64.5237 158.51 65.2704 158.51C66.0077 158.51 66.6657 158.673 67.2444 159C67.8324 159.317 68.2897 159.761 68.6164 160.33C68.9524 160.89 69.1204 161.543 69.1204 162.29C69.1204 163.027 68.9524 163.681 68.6164 164.25C68.2897 164.819 67.8324 165.267 67.2444 165.594C66.6657 165.921 66.0077 166.084 65.2704 166.084ZM65.2704 164.908C65.7464 164.908 66.171 164.801 66.5444 164.586C66.927 164.371 67.2257 164.068 67.4404 163.676C67.655 163.275 67.7624 162.813 67.7624 162.29C67.7624 161.758 67.655 161.301 67.4404 160.918C67.2257 160.526 66.927 160.223 66.5444 160.008C66.171 159.793 65.7464 159.686 65.2704 159.686C64.7944 159.686 64.3697 159.793 63.9964 160.008C63.623 160.223 63.3244 160.526 63.1004 160.918C62.8764 161.301 62.7644 161.758 62.7644 162.29C62.7644 162.813 62.8764 163.275 63.1004 163.676C63.3244 164.068 63.623 164.371 63.9964 164.586C64.3697 164.801 64.7944 164.908 65.2704 164.908ZM70.9791 166V158.58H72.2671V160.596L72.1411 160.092C72.3464 159.579 72.6917 159.187 73.1771 158.916C73.6624 158.645 74.2597 158.51 74.9691 158.51V159.812C74.9131 159.803 74.8571 159.798 74.8011 159.798C74.7544 159.798 74.7077 159.798 74.6611 159.798C73.9424 159.798 73.3731 160.013 72.9531 160.442C72.5331 160.871 72.3231 161.492 72.3231 162.304V166H70.9791ZM85.9076 158.51C86.5049 158.51 87.0322 158.627 87.4896 158.86C87.9469 159.093 88.3016 159.448 88.5536 159.924C88.8149 160.4 88.9456 161.002 88.9456 161.73V166H87.6016V161.884C87.6016 161.165 87.4336 160.624 87.0976 160.26C86.7616 159.896 86.2902 159.714 85.6836 159.714C85.2356 159.714 84.8436 159.807 84.5076 159.994C84.1716 160.181 83.9102 160.456 83.7236 160.82C83.5462 161.184 83.4576 161.637 83.4576 162.178V166H82.1136V161.884C82.1136 161.165 81.9456 160.624 81.6096 160.26C81.2829 159.896 80.8116 159.714 80.1956 159.714C79.7569 159.714 79.3696 159.807 79.0336 159.994C78.6976 160.181 78.4362 160.456 78.2496 160.82C78.0629 161.184 77.9696 161.637 77.9696 162.178V166H76.6256V158.58H77.9136V160.554L77.7036 160.05C77.9369 159.565 78.2962 159.187 78.7816 158.916C79.2669 158.645 79.8316 158.51 80.4756 158.51C81.1849 158.51 81.7962 158.687 82.3096 159.042C82.8229 159.387 83.1589 159.915 83.3176 160.624L82.7716 160.4C82.9956 159.831 83.3876 159.373 83.9476 159.028C84.5076 158.683 85.1609 158.51 85.9076 158.51ZM93.5465 166.084C92.9305 166.084 92.3425 166 91.7825 165.832C91.2319 165.664 90.7979 165.459 90.4805 165.216L91.0405 164.152C91.3579 164.367 91.7499 164.549 92.2165 164.698C92.6832 164.847 93.1592 164.922 93.6445 164.922C94.2699 164.922 94.7179 164.833 94.9885 164.656C95.2685 164.479 95.4085 164.231 95.4085 163.914C95.4085 163.681 95.3245 163.499 95.1565 163.368C94.9885 163.237 94.7645 163.139 94.4845 163.074C94.2139 163.009 93.9105 162.953 93.5745 162.906C93.2385 162.85 92.9025 162.785 92.5665 162.71C92.2305 162.626 91.9225 162.514 91.6425 162.374C91.3625 162.225 91.1385 162.024 90.9705 161.772C90.8025 161.511 90.7185 161.165 90.7185 160.736C90.7185 160.288 90.8445 159.896 91.0965 159.56C91.3485 159.224 91.7032 158.967 92.1605 158.79C92.6272 158.603 93.1779 158.51 93.8125 158.51C94.2979 158.51 94.7879 158.571 95.2825 158.692C95.7865 158.804 96.1972 158.967 96.5145 159.182L95.9405 160.246C95.6045 160.022 95.2545 159.868 94.8905 159.784C94.5265 159.7 94.1625 159.658 93.7985 159.658C93.2105 159.658 92.7719 159.756 92.4825 159.952C92.1932 160.139 92.0485 160.381 92.0485 160.68C92.0485 160.932 92.1325 161.128 92.3005 161.268C92.4779 161.399 92.7019 161.501 92.9725 161.576C93.2525 161.651 93.5605 161.716 93.8965 161.772C94.2325 161.819 94.5685 161.884 94.9045 161.968C95.2405 162.043 95.5439 162.15 95.8145 162.29C96.0945 162.43 96.3185 162.626 96.4865 162.878C96.6639 163.13 96.7525 163.466 96.7525 163.886C96.7525 164.334 96.6219 164.721 96.3605 165.048C96.0992 165.375 95.7305 165.631 95.2545 165.818C94.7785 165.995 94.2092 166.084 93.5465 166.084ZM104.74 166.084C103.993 166.084 103.415 165.883 103.004 165.482C102.593 165.081 102.388 164.507 102.388 163.76V156.956H103.732V163.704C103.732 164.105 103.83 164.413 104.026 164.628C104.231 164.843 104.521 164.95 104.894 164.95C105.314 164.95 105.664 164.833 105.944 164.6L106.364 165.566C106.159 165.743 105.911 165.874 105.622 165.958C105.342 166.042 105.048 166.084 104.74 166.084ZM101.128 159.686V158.58H105.86V159.686H101.128ZM107.989 166V158.58H109.333V166H107.989ZM108.661 157.152C108.4 157.152 108.18 157.068 108.003 156.9C107.835 156.732 107.751 156.527 107.751 156.284C107.751 156.032 107.835 155.822 108.003 155.654C108.18 155.486 108.4 155.402 108.661 155.402C108.922 155.402 109.137 155.486 109.305 155.654C109.482 155.813 109.571 156.013 109.571 156.256C109.571 156.508 109.487 156.723 109.319 156.9C109.151 157.068 108.932 157.152 108.661 157.152ZM111.899 166V155.612H113.243V166H111.899ZM115.809 166V155.612H117.153V166H115.809ZM127.441 158.51C128.048 158.51 128.58 158.627 129.037 158.86C129.504 159.093 129.868 159.448 130.129 159.924C130.39 160.4 130.521 161.002 130.521 161.73V166H129.177V161.884C129.177 161.165 129 160.624 128.645 160.26C128.3 159.896 127.81 159.714 127.175 159.714C126.699 159.714 126.284 159.807 125.929 159.994C125.574 160.181 125.299 160.456 125.103 160.82C124.916 161.184 124.823 161.637 124.823 162.178V166H123.479V158.58H124.767V160.582L124.557 160.05C124.8 159.565 125.173 159.187 125.677 158.916C126.181 158.645 126.769 158.51 127.441 158.51ZM136.186 166.084C135.44 166.084 134.777 165.921 134.198 165.594C133.62 165.267 133.162 164.819 132.826 164.25C132.49 163.671 132.322 163.018 132.322 162.29C132.322 161.553 132.49 160.899 132.826 160.33C133.162 159.761 133.62 159.317 134.198 159C134.777 158.673 135.44 158.51 136.186 158.51C136.924 158.51 137.582 158.673 138.16 159C138.748 159.317 139.206 159.761 139.532 160.33C139.868 160.89 140.036 161.543 140.036 162.29C140.036 163.027 139.868 163.681 139.532 164.25C139.206 164.819 138.748 165.267 138.16 165.594C137.582 165.921 136.924 166.084 136.186 166.084ZM136.186 164.908C136.662 164.908 137.087 164.801 137.46 164.586C137.843 164.371 138.142 164.068 138.356 163.676C138.571 163.275 138.678 162.813 138.678 162.29C138.678 161.758 138.571 161.301 138.356 160.918C138.142 160.526 137.843 160.223 137.46 160.008C137.087 159.793 136.662 159.686 136.186 159.686C135.71 159.686 135.286 159.793 134.912 160.008C134.539 160.223 134.24 160.526 134.016 160.918C133.792 161.301 133.68 161.758 133.68 162.29C133.68 162.813 133.792 163.275 134.016 163.676C134.24 164.068 134.539 164.371 134.912 164.586C135.286 164.801 135.71 164.908 136.186 164.908ZM143.258 166L140.5 158.58H141.774L144.224 165.3H143.622L146.17 158.58H147.304L149.796 165.3H149.208L151.714 158.58H152.918L150.146 166H148.858L146.52 159.868H146.912L144.546 166H143.258Z" fill="#909090"/>
<defs>
<clipPath id="clip0_1018_1514">
<rect width="54" height="54" fill="white" transform="translate(78 44)"/>
</clipPath>
</defs>
</svg>
