<svg width="23" height="28" viewBox="0 0 23 28" fill="none" xmlns="http://www.w3.org/2000/svg">
<path d="M0.833496 14C0.833496 14.3536 0.973972 14.6928 1.22402 14.9428C1.47407 15.1929 1.81321 15.3334 2.16683 15.3334H12.2868L9.22016 18.3867C9.09519 18.5106 8.996 18.6581 8.92831 18.8206C8.86062 18.9831 8.82576 19.1573 8.82576 19.3334C8.82576 19.5094 8.86062 19.6836 8.92831 19.8461C8.996 20.0086 9.09519 20.1561 9.22016 20.28C9.34411 20.405 9.49158 20.5042 9.65406 20.5719C9.81654 20.6396 9.99081 20.6744 10.1668 20.6744C10.3428 20.6744 10.5171 20.6396 10.6796 20.5719C10.8421 20.5042 10.9895 20.405 11.1135 20.28L16.4468 14.9467C16.5682 14.8199 16.6634 14.6704 16.7268 14.5067C16.8602 14.1821 16.8602 13.818 16.7268 13.4934C16.6634 13.3297 16.5682 13.1802 16.4468 13.0534L11.1135 7.72002C10.9892 7.5957 10.8416 7.49709 10.6792 7.42981C10.5167 7.36253 10.3426 7.3279 10.1668 7.3279C9.99102 7.3279 9.81693 7.36253 9.6545 7.42981C9.49207 7.49709 9.34448 7.5957 9.22016 7.72002C9.09584 7.84434 8.99723 7.99193 8.92995 8.15436C8.86267 8.31678 8.82804 8.49087 8.82804 8.66669C8.82804 8.8425 8.86267 9.01659 8.92995 9.17902C8.99723 9.34145 9.09584 9.48904 9.22016 9.61335L12.2868 12.6667H2.16683C1.81321 12.6667 1.47407 12.8072 1.22402 13.0572C0.973972 13.3073 0.833496 13.6464 0.833496 14ZM18.1668 0.666687H4.8335C3.77263 0.666687 2.75521 1.08811 2.00507 1.83826C1.25492 2.58841 0.833496 3.60582 0.833496 4.66669V8.66669C0.833496 9.02031 0.973972 9.35945 1.22402 9.6095C1.47407 9.85954 1.81321 10 2.16683 10C2.52045 10 2.85959 9.85954 3.10964 9.6095C3.35969 9.35945 3.50016 9.02031 3.50016 8.66669V4.66669C3.50016 4.31307 3.64064 3.97393 3.89069 3.72388C4.14074 3.47383 4.47987 3.33335 4.8335 3.33335H18.1668C18.5205 3.33335 18.8596 3.47383 19.1096 3.72388C19.3597 3.97393 19.5002 4.31307 19.5002 4.66669V23.3334C19.5002 23.687 19.3597 24.0261 19.1096 24.2762C18.8596 24.5262 18.5205 24.6667 18.1668 24.6667H4.8335C4.47987 24.6667 4.14074 24.5262 3.89069 24.2762C3.64064 24.0261 3.50016 23.687 3.50016 23.3334V19.3334C3.50016 18.9797 3.35969 18.6406 3.10964 18.3905C2.85959 18.1405 2.52045 18 2.16683 18C1.81321 18 1.47407 18.1405 1.22402 18.3905C0.973972 18.6406 0.833496 18.9797 0.833496 19.3334V23.3334C0.833496 24.3942 1.25492 25.4116 2.00507 26.1618C2.75521 26.9119 3.77263 27.3334 4.8335 27.3334H18.1668C19.2277 27.3334 20.2451 26.9119 20.9953 26.1618C21.7454 25.4116 22.1668 24.3942 22.1668 23.3334V4.66669C22.1668 3.60582 21.7454 2.58841 20.9953 1.83826C20.2451 1.08811 19.2277 0.666687 18.1668 0.666687Z" fill="#909090"/>
</svg>
